<svg width="196" height="60" viewBox="0 0 196 60" fill="none" xmlns="http://www.w3.org/2000/svg">
<path d="M189.549 29.9626V29.7661H190.667V29.9626H190.208V31.7636H190.008V29.9626H189.549Z" fill="#001E5A"/>
<path d="M191.154 29.7661L191.584 30.9122L192.014 29.7661H192.243V31.7636H192.071V30.0608L191.641 31.3052H191.526L191.068 30.0936V31.7963H190.896V29.7989H191.154V29.7661Z" fill="#001E5A"/>
<path d="M168.117 29.7661L169.034 34.7107L169.693 29.7661H170.897L169.722 37.1339H168.461L167.544 32.3858L166.656 37.1339H165.367L164.106 29.7661H165.281L166.083 34.7107L166.971 29.7661H168.117Z" fill="#001E5A"/>
<path d="M173.418 36.0534C173.619 36.0534 173.791 35.9879 173.934 35.8897C174.077 35.7915 174.249 35.6605 174.392 35.464L174.994 36.3154C174.736 36.6101 174.507 36.8393 174.249 37.003C173.991 37.1668 173.676 37.2323 173.332 37.2323C172.73 37.2323 172.243 37.0685 171.928 36.7738C171.613 36.4791 171.441 35.9879 171.441 35.2675V33.532C171.441 32.9098 171.613 32.4514 171.928 32.1567C172.243 31.862 172.673 31.6982 173.246 31.6982C173.504 31.6982 173.733 31.731 173.934 31.8292C174.134 31.9275 174.335 32.0257 174.478 32.1894C174.621 32.3532 174.736 32.5496 174.822 32.7788C174.908 33.0081 174.937 33.27 174.937 33.532V34.5144L172.587 35.0056V35.3003C172.587 35.5622 172.673 35.7587 172.816 35.8897C172.988 35.9879 173.189 36.0534 173.418 36.0534ZM173.246 32.9098C173.046 32.9098 172.874 32.9753 172.759 33.0736C172.644 33.1718 172.587 33.3355 172.587 33.5647V34.1542L173.762 33.9249V33.5975C173.762 33.401 173.733 33.2373 173.647 33.1063C173.561 32.9753 173.418 32.9098 173.246 32.9098Z" fill="#001E5A"/>
<path d="M177.458 31.6982C178.002 31.6982 178.404 31.8292 178.661 32.1239C178.919 32.4186 179.063 32.8771 179.063 33.4993V37.1013H178.174L178.06 36.3809C177.916 36.6101 177.773 36.8066 177.573 36.9703C177.372 37.134 177.171 37.1995 176.942 37.1995C176.484 37.1995 176.169 37.0685 175.939 36.8393C175.739 36.6101 175.624 36.2171 175.624 35.6932V34.3179L177.888 33.7612V33.4665C177.888 33.2045 177.859 33.0408 177.773 32.9426C177.687 32.8443 177.544 32.8116 177.315 32.8116C177.229 32.8116 177.143 32.8443 177.028 32.8771C176.914 32.9098 176.799 32.9426 176.684 33.0081C176.57 33.0736 176.455 33.1063 176.369 33.1718C176.283 33.2373 176.197 33.3028 176.14 33.3355L175.739 32.4186C175.853 32.3204 175.968 32.2222 176.111 32.1567C176.255 32.0584 176.398 31.993 176.541 31.9275C176.684 31.862 176.856 31.7965 177 31.7637C177.172 31.731 177.315 31.6982 177.458 31.6982ZM177.888 34.6781L176.828 34.9728V35.6605C176.828 35.857 176.856 35.9552 176.942 36.0207C177 36.0862 177.114 36.0862 177.286 36.0862C177.458 36.0862 177.601 36.0207 177.716 35.8897C177.831 35.7587 177.888 35.595 177.888 35.3985V34.6781Z" fill="#001E5A"/>
<path d="M180.151 29.4385H181.326V37.1337H180.151V29.4385Z" fill="#001E5A"/>
<path d="M184.191 36.0206C184.392 36.0206 184.535 35.9879 184.65 35.9551C184.764 35.9224 184.879 35.8569 184.994 35.7914L185.223 36.741C185.022 36.872 184.822 36.9702 184.621 37.0685C184.421 37.1667 184.22 37.1995 184.019 37.1995C183.561 37.1995 183.246 37.1012 183.045 36.9047C182.845 36.7083 182.759 36.3481 182.759 35.8241V32.7133H182.042V31.7964H182.759V30.2246H183.933V31.7964H184.822V32.7133H183.933V35.6604C183.933 35.7259 183.962 35.8241 183.991 35.8896C184.077 35.9879 184.134 36.0206 184.191 36.0206Z" fill="#001E5A"/>
<path d="M188.174 31.6981C188.432 31.6981 188.661 31.7308 188.833 31.7963C189.005 31.8618 189.148 31.9928 189.234 32.1237C189.349 32.2875 189.406 32.4512 189.435 32.7132C189.463 32.9424 189.492 33.2044 189.492 33.5318V37.1011H188.317V33.5318C188.317 33.3026 188.289 33.1389 188.203 33.0406C188.117 32.9424 187.973 32.8769 187.773 32.8769C187.658 32.8769 187.544 32.9096 187.458 32.9751C187.372 33.0406 187.286 33.1061 187.2 33.2044C187.143 33.3026 187.085 33.4336 187.028 33.5318C186.971 33.6301 186.971 33.7938 186.971 33.9248V37.1011H185.796V29.3076H186.971V32.353C187.114 32.1565 187.286 31.9928 187.458 31.8618C187.716 31.7635 187.916 31.6981 188.174 31.6981Z" fill="#001E5A"/>
<path d="M167.286 40.8994L168.977 48.2999H167.773L167.401 46.5644H165.71L165.338 48.2999H164.135L165.854 40.8994H167.286ZM167.143 45.4838L166.541 42.2747L165.94 45.4838H167.143Z" fill="#001E5A"/>
<path d="M171.957 40.5068H173.16V48.3003H172.215L172.043 47.8419C171.899 48.0056 171.756 48.1039 171.613 48.2348C171.47 48.3331 171.298 48.3986 171.126 48.3986C170.066 48.3986 169.521 47.7764 169.521 46.5648V44.731C169.521 44.1089 169.665 43.6504 169.922 43.3557C170.18 43.061 170.581 42.8973 171.154 42.8973C171.269 42.8973 171.355 42.8973 171.412 42.8973C171.47 42.8973 171.556 42.93 171.613 42.9628C171.67 42.9955 171.728 43.0283 171.785 43.0937C171.842 43.1592 171.899 43.2247 171.985 43.323V40.5068H171.957ZM171.985 44.9275C171.985 44.6655 171.928 44.4691 171.813 44.3053C171.699 44.1416 171.527 44.0761 171.326 44.0761C171.126 44.0761 170.954 44.1416 170.839 44.2398C170.725 44.3381 170.667 44.5018 170.667 44.731V46.5321C170.667 46.794 170.725 46.9905 170.811 47.056C170.897 47.1542 171.069 47.187 171.298 47.187C171.498 47.187 171.67 47.1215 171.785 46.9578C171.899 46.794 171.957 46.5975 171.957 46.3683V44.9275H171.985Z" fill="#001E5A"/>
<path d="M175.882 46.6626L176.713 42.9951H177.916L176.398 48.2999H175.338L173.819 42.9951H175.023L175.882 46.6626Z" fill="#001E5A"/>
<path d="M178.719 40.9321H179.893V42.3075H178.719V40.9321ZM178.719 42.9951H179.893V48.2999H178.719V42.9951Z" fill="#001E5A"/>
<path d="M182.959 45.0909C183.16 45.1891 183.332 45.2873 183.475 45.3856C183.618 45.4838 183.733 45.5821 183.848 45.713C183.962 45.844 184.019 45.975 184.048 46.106C184.077 46.237 184.105 46.4334 184.105 46.6627C184.105 46.9574 184.077 47.1866 183.991 47.4158C183.905 47.645 183.79 47.8088 183.647 47.9725C183.504 48.1362 183.332 48.2345 183.131 48.3C182.931 48.3654 182.701 48.4309 182.472 48.4309C182.128 48.4309 181.842 48.3655 181.555 48.2017C181.269 48.038 181.04 47.8088 180.839 47.5141L181.498 46.6627C181.555 46.7609 181.613 46.8264 181.699 46.9246C181.785 47.0229 181.871 47.0884 181.956 47.1539C182.042 47.2193 182.128 47.2848 182.243 47.3176C182.329 47.3503 182.444 47.3831 182.53 47.3831C182.701 47.3831 182.816 47.3503 182.931 47.3176C183.017 47.2521 183.074 47.1211 183.074 46.9246C183.074 46.8264 183.045 46.7609 182.988 46.6954C182.931 46.6299 182.845 46.5644 182.73 46.4989C182.644 46.4334 182.53 46.368 182.415 46.3352C182.3 46.3025 182.214 46.237 182.128 46.2042C181.928 46.106 181.756 46.0078 181.613 45.9095C181.469 45.8113 181.355 45.713 181.269 45.5821C181.183 45.4511 181.126 45.3201 181.068 45.1564C181.04 44.9926 181.011 44.7962 181.011 44.5997C181.011 44.3377 181.04 44.1085 181.126 43.912C181.212 43.7156 181.326 43.5518 181.469 43.3881C181.613 43.2571 181.785 43.1261 181.985 43.0606C182.186 42.9951 182.386 42.9624 182.615 42.9624C182.902 42.9624 183.16 43.0279 183.418 43.1916C183.676 43.3554 183.905 43.5518 184.105 43.781L183.446 44.6324C183.332 44.5015 183.217 44.3705 183.103 44.2722C182.959 44.174 182.845 44.1085 182.673 44.1085C182.53 44.1085 182.415 44.1412 182.329 44.2395C182.243 44.305 182.186 44.436 182.186 44.5997C182.186 44.6652 182.214 44.7307 182.272 44.7962C182.329 44.8617 182.386 44.8944 182.472 44.9599C182.558 44.9926 182.644 45.0581 182.73 45.0909C182.787 45.0254 182.873 45.0581 182.959 45.0909Z" fill="#001E5A"/>
<path d="M186.57 42.897C186.827 42.897 187.057 42.9297 187.257 43.028C187.486 43.0935 187.658 43.2244 187.83 43.3882C188.002 43.5519 188.117 43.7484 188.231 43.9776C188.317 44.2068 188.375 44.4688 188.375 44.7635V46.5645C188.375 46.8592 188.317 47.1212 188.231 47.3504C188.145 47.5796 188.002 47.7761 187.859 47.9398C187.687 48.1036 187.515 48.2018 187.286 48.3C187.057 48.3983 186.827 48.431 186.57 48.431C186.312 48.431 186.054 48.3983 185.825 48.3C185.595 48.2345 185.395 48.1036 185.223 47.9398C185.051 47.7761 184.936 47.5796 184.822 47.3504C184.736 47.1212 184.678 46.8592 184.678 46.5645V44.7635C184.678 44.4688 184.736 44.2068 184.822 43.9776C184.908 43.7484 185.051 43.5519 185.223 43.3882C185.395 43.2244 185.595 43.1262 185.796 43.028C186.082 42.9297 186.312 42.897 186.57 42.897ZM187.229 44.7307C187.229 44.4688 187.171 44.2723 187.085 44.2068C186.999 44.1413 186.827 44.0758 186.598 44.0758C186.369 44.0758 186.226 44.1413 186.111 44.2396C185.996 44.3378 185.939 44.5015 185.939 44.7307V46.5318C185.939 46.8265 185.996 47.0229 186.082 47.0884C186.168 47.1867 186.369 47.2194 186.627 47.2194C186.827 47.2194 186.971 47.1539 187.085 47.0557C187.2 46.9574 187.257 46.7937 187.257 46.5318V44.7307H187.229Z" fill="#001E5A"/>
<path d="M191.211 42.9297C191.354 42.9297 191.469 42.9297 191.526 42.9624C191.584 42.9952 191.67 43.0279 191.727 43.0607L191.526 44.2723C191.355 44.174 191.183 44.1085 191.039 44.1085C190.867 44.1085 190.724 44.174 190.638 44.305C190.524 44.436 190.495 44.6652 190.495 44.9272V48.3H189.349V42.9952H190.208L190.352 43.5519C190.466 43.3226 190.61 43.1262 190.753 43.0607C190.867 42.9624 191.039 42.9297 191.211 42.9297Z" fill="#001E5A"/>
<path d="M193.217 48.3982L191.899 42.9951H193.102L193.79 47.0228L194.449 42.9951H195.652L194.134 49.1513C194.019 49.6752 193.761 50.0682 193.417 50.3302C193.074 50.5921 192.644 50.7231 192.128 50.7559L192.014 49.7407C192.128 49.7407 192.214 49.708 192.329 49.6752C192.443 49.6425 192.529 49.577 192.644 49.5115C192.73 49.446 192.816 49.3805 192.902 49.2823C192.988 49.1841 193.016 49.1186 193.045 49.0203L193.217 48.3982Z" fill="#001E5A"/>
<path d="M167.315 55.406C167.487 55.537 167.63 55.668 167.773 55.7662C167.917 55.8972 168.031 56.0282 168.117 56.1592C168.203 56.3229 168.289 56.4866 168.347 56.7158C168.404 56.9451 168.432 57.207 168.432 57.5345C168.432 57.8619 168.375 58.1567 168.289 58.3859C168.175 58.6478 168.031 58.8443 167.859 59.008C167.687 59.1718 167.458 59.3028 167.229 59.401C167 59.4992 166.742 59.532 166.455 59.532C165.997 59.532 165.567 59.4337 165.195 59.2373C164.822 59.0408 164.536 58.6806 164.307 58.1894L165.195 57.4035C165.338 57.6982 165.481 57.9602 165.653 58.1239C165.825 58.2876 166.083 58.3859 166.398 58.3859C166.685 58.3859 166.885 58.3204 167.029 58.2221C167.172 58.1239 167.258 57.8947 167.258 57.5672C167.258 57.4035 167.2 57.2398 167.114 57.1088C167 56.9778 166.885 56.8468 166.742 56.7486C166.599 56.6176 166.427 56.5194 166.255 56.4211C166.083 56.3229 165.911 56.2247 165.796 56.1264C165.653 56.0282 165.539 55.9299 165.367 55.799C165.223 55.668 165.08 55.537 164.966 55.3733C164.851 55.2095 164.736 55.0131 164.65 54.7838C164.564 54.5546 164.536 54.2927 164.536 53.9979C164.536 53.6705 164.593 53.3758 164.679 53.1466C164.794 52.9173 164.908 52.6881 165.109 52.5244C165.281 52.3607 165.51 52.2297 165.739 52.1642C165.968 52.0987 166.255 52.0332 166.541 52.0332C166.685 52.0332 166.828 52.0659 167 52.0987C167.172 52.1314 167.315 52.1969 167.458 52.2952C167.602 52.3934 167.773 52.4916 167.917 52.5899C168.06 52.7209 168.175 52.8518 168.289 53.0156L167.63 53.9979C167.573 53.8997 167.487 53.8342 167.401 53.736C167.315 53.6377 167.2 53.5723 167.086 53.474C166.971 53.4085 166.857 53.343 166.742 53.2775C166.627 53.212 166.513 53.212 166.398 53.212C166.169 53.212 165.968 53.2775 165.854 53.3758C165.739 53.474 165.682 53.6705 165.682 53.9652C165.682 54.1289 165.739 54.2927 165.882 54.4236C166.026 54.5874 166.169 54.7183 166.341 54.8493C166.513 54.9803 166.713 55.0785 166.885 55.1768C167.086 55.2423 167.2 55.3405 167.315 55.406Z" fill="#001E5A"/>
<path d="M171.04 58.3859C171.24 58.3859 171.412 58.3204 171.556 58.2222C171.699 58.124 171.871 57.993 172.014 57.7965L172.616 58.6479C172.358 58.9426 172.129 59.1718 171.871 59.3355C171.613 59.4993 171.298 59.5648 170.954 59.5648C170.352 59.5648 169.865 59.401 169.55 59.1063C169.235 58.8116 169.063 58.3204 169.063 57.6V55.8972C169.063 55.2751 169.235 54.8166 169.55 54.5219C169.865 54.2272 170.295 54.0635 170.868 54.0635C171.126 54.0635 171.355 54.0962 171.556 54.1945C171.756 54.2927 171.957 54.3909 172.1 54.5547C172.243 54.7184 172.358 54.9149 172.444 55.1441C172.53 55.3733 172.558 55.6353 172.558 55.8972V56.8796L170.209 57.3708V57.6655C170.209 57.9275 170.295 58.124 170.438 58.2549C170.61 58.3204 170.782 58.3859 171.04 58.3859ZM170.868 55.2423C170.667 55.2423 170.495 55.3078 170.381 55.4061C170.266 55.5043 170.209 55.668 170.209 55.8972V56.4867L171.384 56.2574V55.93C171.384 55.7335 171.355 55.5698 171.269 55.4388C171.183 55.3078 171.04 55.2423 170.868 55.2423Z" fill="#001E5A"/>
<path d="M175.395 54.0962C175.538 54.0962 175.653 54.0962 175.71 54.1289C175.768 54.1617 175.853 54.1944 175.911 54.2272L175.71 55.4388C175.538 55.3405 175.366 55.275 175.223 55.275C175.051 55.275 174.908 55.3405 174.822 55.4715C174.707 55.6025 174.679 55.8317 174.679 56.0937V59.4665H173.533V54.1617H174.392L174.535 54.7184C174.65 54.4891 174.793 54.2927 174.937 54.2272C175.051 54.1289 175.223 54.0962 175.395 54.0962Z" fill="#001E5A"/>
<path d="M178.289 57.8291L179.12 54.1616H180.323L178.805 59.4664H177.745L176.226 54.1616H177.429L178.289 57.8291Z" fill="#001E5A"/>
<path d="M181.154 52.0986H182.329V53.474H181.154V52.0986ZM181.154 54.1616H182.329V59.4664H181.154V54.1616Z" fill="#001E5A"/>
<path d="M185.022 55.2423C184.65 55.2423 184.449 55.4715 184.449 55.8972V57.731C184.449 57.9602 184.507 58.1239 184.621 58.2549C184.736 58.3531 184.879 58.4186 185.108 58.4186C185.28 58.4186 185.423 58.3859 185.567 58.3204C185.71 58.2549 185.825 58.1239 185.939 57.9602L186.627 58.7788C186.398 59.0735 186.168 59.27 185.911 59.401C185.653 59.532 185.366 59.5975 185.022 59.5975C184.507 59.5975 184.077 59.4337 183.762 59.139C183.446 58.8116 183.303 58.3531 183.303 57.7637V55.93C183.303 55.6352 183.332 55.406 183.418 55.1768C183.504 54.9476 183.618 54.7511 183.762 54.5874C183.905 54.4236 184.105 54.2927 184.306 54.2272C184.507 54.1289 184.736 54.0962 184.994 54.0962C185.337 54.0962 185.653 54.1617 185.911 54.2927C186.168 54.4237 186.398 54.6529 186.627 55.0131L185.882 55.8317C185.767 55.668 185.624 55.537 185.481 55.4388C185.366 55.3078 185.194 55.2423 185.022 55.2423Z" fill="#001E5A"/>
<path d="M189.177 58.3859C189.377 58.3859 189.549 58.3204 189.693 58.2222C189.836 58.124 190.008 57.993 190.151 57.7965L190.753 58.6479C190.495 58.9426 190.266 59.1718 190.008 59.3355C189.75 59.4993 189.435 59.5648 189.091 59.5648C188.489 59.5648 188.002 59.401 187.687 59.1063C187.372 58.8116 187.2 58.3204 187.2 57.6V55.8972C187.2 55.2751 187.372 54.8166 187.687 54.5219C188.002 54.2272 188.432 54.0635 189.005 54.0635C189.263 54.0635 189.492 54.0962 189.693 54.1945C189.893 54.2927 190.094 54.3909 190.237 54.5547C190.38 54.7184 190.495 54.9149 190.581 55.1441C190.667 55.3733 190.695 55.6353 190.695 55.8972V56.8796L188.346 57.3708V57.6655C188.346 57.9275 188.432 58.124 188.575 58.2549C188.747 58.3204 188.948 58.3859 189.177 58.3859ZM189.005 55.2423C188.804 55.2423 188.633 55.3078 188.518 55.4061C188.403 55.5043 188.346 55.668 188.346 55.8972V56.4867L189.521 56.2574V55.93C189.521 55.7335 189.492 55.5698 189.406 55.4388C189.32 55.3078 189.206 55.2423 189.005 55.2423Z" fill="#001E5A"/>
<path d="M193.503 56.2901C193.704 56.3883 193.876 56.4866 194.019 56.5848C194.162 56.683 194.277 56.7813 194.392 56.9123C194.506 57.0432 194.564 57.1742 194.592 57.3052C194.65 57.4689 194.65 57.6327 194.65 57.8619C194.65 58.1566 194.621 58.3858 194.535 58.615C194.449 58.8443 194.334 59.008 194.191 59.1717C194.048 59.3354 193.876 59.4337 193.675 59.4992C193.475 59.5647 193.246 59.6302 193.016 59.6302C192.673 59.6302 192.386 59.5647 192.099 59.4009C191.813 59.2372 191.584 59.008 191.383 58.7133L192.042 57.8619C192.099 57.9601 192.157 58.0256 192.243 58.1238C192.329 58.2221 192.415 58.2876 192.501 58.3531C192.587 58.4186 192.673 58.4841 192.787 58.5168C192.873 58.5495 192.988 58.5823 193.074 58.5823C193.246 58.5823 193.36 58.5495 193.475 58.5168C193.561 58.4513 193.618 58.3203 193.618 58.1238C193.618 58.0256 193.589 57.9601 193.532 57.8946C193.475 57.8291 193.389 57.7636 193.274 57.6982C193.188 57.6327 193.074 57.5672 192.959 57.5344C192.844 57.5017 192.758 57.4362 192.673 57.4034C192.472 57.3052 192.3 57.207 192.157 57.1087C192.014 57.0105 191.899 56.9123 191.813 56.7813C191.727 56.6503 191.67 56.5193 191.612 56.3556C191.584 56.1919 191.555 55.9954 191.555 55.7989C191.555 55.5369 191.584 55.3077 191.67 55.1112C191.756 54.9148 191.87 54.751 192.014 54.5873C192.157 54.4236 192.329 54.3253 192.529 54.2599C192.73 54.1944 192.93 54.1616 193.16 54.1616C193.446 54.1616 193.704 54.2271 193.962 54.3908C194.22 54.5546 194.449 54.751 194.65 54.9803L193.991 55.8316C193.876 55.7007 193.761 55.5697 193.647 55.4715C193.503 55.3732 193.389 55.3077 193.217 55.3077C193.074 55.3077 192.959 55.3405 192.873 55.4387C192.787 55.5042 192.73 55.6352 192.73 55.7989C192.73 55.8644 192.758 55.9299 192.816 55.9954C192.873 56.0609 192.93 56.0936 193.016 56.1591C193.102 56.1918 193.188 56.2573 193.274 56.2901C193.36 56.1919 193.417 56.2573 193.503 56.2901Z" fill="#001E5A"/>
<path d="M113.334 42.9297L108.807 40.4738C108.262 40.179 107.976 39.5896 107.976 38.9674C107.976 38.247 108.463 37.4611 109.294 37.4611C110.726 37.4611 110.927 39.4914 110.927 40.4738V41.0959L116.342 40.0808C115.311 36.3478 112.703 35.1689 109.294 35.1689C107.116 35.1689 104.652 35.7911 103.391 37.5266C102.589 38.4435 101.93 40.1463 101.93 41.4561C101.93 44.043 104.022 45.3856 105.11 46.0405C108.119 47.6451 106.6 46.8264 109.809 48.5947C110.354 48.8894 110.64 49.4788 110.64 50.101C110.64 50.7887 110.182 51.6073 109.294 51.6073C107.89 51.6073 107.66 49.6426 107.66 48.5947V47.8743L101.959 48.9876C102.904 52.5242 105.827 53.8995 109.294 53.8995C111.385 53.8995 113.305 53.2773 114.68 52.0003C115.339 51.5091 115.769 50.7232 116.056 50.101C116.428 49.3478 116.6 48.6602 116.6 47.8415C116.571 44.7962 113.964 43.2899 113.334 42.9297Z" fill="#C3966E"/>
<path d="M97.4029 29.7329C95.741 29.7329 94.423 31.272 94.423 33.1712C94.423 35.005 95.741 36.5768 97.4029 36.5768C98.3198 36.5768 99.122 36.1511 99.6951 35.3979C99.208 36.4458 97.9759 37.9521 95.4832 37.9521C95.168 37.9521 94.8242 37.9193 94.4517 37.8866V53.8993H100.44V33.204C100.411 31.272 99.0647 29.7329 97.4029 29.7329Z" fill="#C3966E"/>
<path d="M91.8443 49.9044C90.8701 49.8062 90.6982 49.3477 90.6982 47.7432V37.6247H92.36V35.3325H90.6982V31.6978L82.962 37.6247C83.9362 37.6247 84.6812 38.5089 84.6812 39.5895V49.7079C84.6812 50.1664 84.7958 53.9976 88.6639 53.9976C92.2741 53.9976 92.8758 49.315 92.8758 49.315C92.8758 49.315 92.5033 49.9044 91.8443 49.9044Z" fill="#C3966E"/>
<path d="M77.9478 35.1689C75.8562 35.1689 74.5668 36.3805 73.7932 37.5921V35.3327L67.8048 36.4788V53.8668H73.7932V41.8818C73.7932 39.4914 74.7101 38.6072 75.4264 38.6072C77.0882 38.6072 77.1455 40.9322 77.1455 41.2269V53.8995H83.1626V41.3906C83.1339 38.64 81.9305 35.1689 77.9478 35.1689Z" fill="#C3966E"/>
<path d="M62.7047 36.0203C61.7878 35.4636 60.4411 35.1689 58.6646 35.1689C55.5702 35.1689 53.3639 36.2823 52.0746 38.4435C51.3869 39.6224 51.0431 41.1614 51.0431 43.1262C51.0431 45.8768 51.0717 47.5141 51.1577 48.0708C51.3009 49.1186 51.5875 50.0028 52.0746 50.7232C53.3639 52.8189 55.5702 53.8668 58.6646 53.8668C60.04 53.8668 61.3293 53.6048 62.4754 53.0809C64.5384 52.2295 65.7705 50.5267 66.143 48.0708H60.2405C60.2119 49.0204 60.2119 49.6098 60.1832 49.7735C59.9827 50.9524 59.4956 51.5746 58.636 51.5746C57.8051 51.5746 57.2893 50.9524 57.1461 49.7735C57.0888 49.2169 57.0601 47.907 57.0601 45.9423H66.2576V43.0934C66.2576 39.5896 65.0828 37.2319 62.7047 36.0203ZM60.2978 43.7156H57.0028V40.4738C57.0028 40.1463 57.0601 39.7206 57.1461 39.2622C57.232 38.8037 57.4039 38.378 57.6045 38.0178C57.8337 37.6576 58.1776 37.4939 58.636 37.4939C59.0944 37.4939 59.4383 37.6576 59.6675 38.0178C59.8967 38.378 60.04 38.8037 60.1259 39.2622C60.2119 39.7206 60.2405 40.1463 60.2405 40.4738V43.7156H60.2978Z" fill="#C3966E"/>
<path d="M43.4788 47.3175C43.4788 49.7079 42.5906 50.5921 41.8743 50.5921C40.2124 50.5921 40.1265 48.2671 40.1265 47.9724V35.2998L34.1381 36.4459V47.8087C34.1381 50.5266 35.3701 53.9976 39.3242 53.9976C41.4158 53.9976 42.7052 52.8188 43.4501 51.5744L44.453 53.8339H49.4672V35.2998L43.4501 36.4459V47.3175H43.4788Z" fill="#C3966E"/>
<path d="M26.6024 37.5921C25.8575 36.3805 24.5395 35.1689 22.4478 35.1689C18.4651 35.1689 17.2904 38.64 17.2904 41.3579L17.2617 47.2849C17.2617 50.0355 18.2073 53.9323 22.4478 53.9323C24.74 53.9323 25.9434 52.6879 26.6024 51.3126V59.499H32.6195V35.3654L26.6024 36.5115V37.5921ZM26.6024 47.8415C26.5451 48.9876 26.2586 50.7232 24.9979 50.7232C23.3934 50.7232 23.2501 49.0204 23.2501 47.7106V41.1942C23.2501 40.8994 23.3361 38.5745 24.9979 38.5745C25.7142 38.5745 26.6024 39.4586 26.6024 41.8491V47.8415Z" fill="#C3966E"/>
<path d="M12.1616 36.0203C11.2447 35.4636 9.89803 35.1689 8.12157 35.1689C5.0271 35.1689 2.82086 36.2823 1.53149 38.4435C0.843832 39.6224 0.5 41.1614 0.5 43.1262C0.5 45.8768 0.528651 47.5141 0.614608 48.0708C0.757871 49.1186 1.0444 50.0028 1.53149 50.7232C2.82086 52.8189 5.0271 53.8668 8.12157 53.8668C9.4969 53.8668 10.7863 53.6048 11.9324 53.0809C13.9953 52.2295 15.2274 50.5267 15.5999 48.0708H9.69746C9.66881 49.0204 9.66881 49.6098 9.64015 49.7735C9.43959 50.9524 8.9525 51.5746 8.09292 51.5746C7.262 51.5746 6.74625 50.9524 6.60298 49.7735C6.54568 49.2169 6.51703 47.907 6.51703 45.9423H15.7431V43.0934C15.7145 39.5896 14.5397 37.2319 12.1616 36.0203ZM9.75476 43.7156H6.45972V40.4738C6.45972 40.1463 6.51703 39.7206 6.60298 39.2622C6.68894 38.8037 6.86086 38.378 7.06143 38.0178C7.29065 37.6576 7.63448 37.4939 8.09292 37.4939C8.55136 37.4939 8.89519 37.6576 9.12441 38.0178C9.35363 38.378 9.4969 38.8037 9.58286 39.2622C9.66881 39.7206 9.69746 40.1463 9.69746 40.4738V43.7156H9.75476Z" fill="#C3966E"/>
<path fill-rule="evenodd" clip-rule="evenodd" d="M131.327 33.6954C129.666 37.3956 129.522 43.0934 129.494 44.3705C127.259 46.4662 125.826 50.0028 125.081 52.1967C124.709 49.2496 124.766 46.0733 125.139 43.2244C125.654 39.0984 126.686 35.7256 127.631 34.9725C127.803 34.8415 127.946 34.7432 128.118 34.645C128.147 34.645 128.147 34.645 128.176 34.6123C128.72 34.2848 129.293 34.0883 129.838 33.9573C129.866 33.9573 129.895 33.9573 129.895 33.9573H129.923C130.468 33.7609 130.955 33.7281 131.327 33.6954ZM145.339 25.8691C145.482 25.2142 145.482 24.5921 145.31 24.0354C145.167 23.6424 144.966 23.2822 144.737 22.9875C143.906 22.6928 143.276 22.7255 142.874 22.8238C143.705 24.2646 144.393 25.6727 145.023 27.0152C145.138 26.655 145.253 26.2621 145.339 25.8691ZM146.37 48.2672C146.198 46.9574 145.425 45.6476 144.45 44.436C144.565 45.2219 144.68 46.0733 144.766 46.9247C144.909 48.3655 144.937 49.7408 144.766 50.6904C144.508 52.0657 144.25 52.9499 144.021 53.5393H146.828C146.771 52.6879 146.657 50.7887 146.37 48.2672ZM139.236 39.8843C138.319 40.1135 133.82 41.2596 131.327 43.6828C131.986 43.5191 132.817 43.3226 133.763 43.1916C133.792 43.1916 133.82 43.1916 133.878 43.1589C135.769 42.8642 138.061 42.7332 140.21 43.1261C140.267 43.1261 140.296 43.1262 140.353 43.1589C141.499 43.3881 142.559 43.7811 143.505 44.4032C143.447 43.9775 143.362 43.5846 143.304 43.1916C141.614 41.5216 139.751 40.2445 139.236 39.8843ZM138.605 17.4862C139.436 16.995 144.364 13.7532 146.055 8.25193L140.668 8.93959C140.582 9.39803 140.382 10.2494 140.009 11.2973V11.33C140.009 11.33 140.009 11.3628 139.981 11.3628C139.407 13.0328 138.405 15.2268 136.771 17.2898L138.605 17.4862ZM136.829 18.2066L139.809 20.3024L138.548 18.3376L136.829 18.2066ZM139.293 10.4459C139.522 9.75823 139.665 9.16881 139.723 8.8086C138.72 8.4484 136.055 7.46603 133.677 5.59952C134.68 7.07308 136.399 9.00508 139.293 10.4459ZM147.316 18.7961C147.459 18.3376 147.659 17.4862 147.803 16.4384V16.3074V16.2419C147.975 14.7683 147.975 12.8691 147.459 10.8388C147.459 10.8061 147.459 10.8061 147.459 10.7733C147.287 10.1512 147.086 9.52901 146.828 8.90684C145.109 14.0152 140.84 17.1915 139.407 18.1411L140.611 19.9094C141.614 19.451 144.737 18.0429 147.316 18.7961ZM149.235 6.38542L149.207 6.41816C148.462 7.00759 147.745 7.53152 147.344 7.82623C147.688 8.54664 147.975 9.26705 148.175 9.95471C148.748 9.62725 149.436 9.16881 150.009 8.71037C150.209 8.54664 150.41 8.35017 150.553 8.18644C150.582 8.15369 150.582 8.15369 150.611 8.12095C150.811 7.89173 150.983 7.62976 151.098 7.40054C151.527 6.45091 151.47 5.30481 151.356 4.48617C150.811 5.07559 150.038 5.73051 149.293 6.31993C149.293 6.31993 149.264 6.35268 149.235 6.38542ZM148.72 12.4761C148.863 13.7205 148.863 14.8993 148.777 15.9144C148.49 18.927 147.803 19.7784 147.803 19.7784C147.029 19.0908 144.021 19.7784 144.021 19.7784C143.333 19.9094 142.703 20.1386 142.187 20.3351C143.19 20.5971 144.422 21.121 145.281 22.1034C145.31 22.1361 145.339 22.1361 145.339 22.1689C145.682 22.5946 145.969 23.053 146.169 23.6424C146.427 24.3956 146.399 25.247 146.227 26.0656C146.084 26.786 145.826 27.4737 145.482 28.1613C145.998 29.4057 146.427 30.6173 146.8 31.7634C146.857 32.0253 146.914 32.2873 147 32.5493C148.232 36.8062 148.576 41.7181 148.576 41.7181C149.98 40.1135 152.187 37.0682 153.361 32.975C154.937 27.7029 154.737 20.5971 148.72 12.4761ZM149.121 5.20657C149.894 4.5844 150.639 3.92949 150.983 3.4383C148.548 1.27708 146.227 0.360203 144.651 0C145.31 0.523932 145.912 1.08061 146.427 1.63729C147.631 2.91437 148.519 4.19145 149.121 5.20657ZM150.525 9.49627C150.066 9.88922 149.55 10.2494 149.063 10.5441C150.181 11.0026 151.155 11.592 152.043 12.2797C152.931 11.4283 153.992 9.95471 154.651 9.00508H151.04C150.897 9.20156 150.725 9.36528 150.525 9.49627ZM153.791 37.9523C154.393 37.2319 154.994 36.4133 155.568 35.4636L155.596 35.4309C156.742 33.5644 157.774 31.2722 158.605 28.3906C158.519 27.2772 157.516 15.7834 148.49 11.8212C155.424 20.2696 155.625 27.7357 153.82 33.3352C152.53 37.3629 150.209 40.4083 148.605 42.1765C149.035 41.98 149.522 41.7181 150.009 41.3579C150.038 41.3251 150.066 41.3251 150.095 41.2924C151.212 40.572 152.502 39.5241 153.791 37.9523ZM155.138 49.4133C155.711 45.1236 156.141 40.441 155.911 37.1664C155.568 37.6904 155.252 38.1815 154.909 38.6072C153.762 40.1135 152.588 41.2269 151.556 42.0128L153.934 57.2068C154.278 55.2748 154.737 52.5242 155.109 49.5116C155.109 49.5116 155.138 49.4788 155.138 49.4133ZM136.542 47.1539C137.201 45.9423 138.004 44.7962 138.863 43.9775C137.287 43.8138 135.683 43.9448 134.25 44.1413C133.792 46.4007 133.333 48.5619 133.19 49.2823L134.622 51.3453C134.966 50.4285 135.625 48.8567 136.456 47.3176C136.485 47.2521 136.514 47.2194 136.542 47.1539ZM139.035 53.834C138.29 53.2118 137.516 52.3932 136.972 51.3453C136.685 50.7887 136.485 50.1992 136.37 49.5443C135.826 50.7559 135.425 51.8038 135.253 52.295C135.74 53.0809 137.373 55.7005 138.004 57.3051H141.241C140.783 56.3227 139.923 54.5872 139.035 53.834ZM126.055 29.8314C126.657 30.0606 127.144 30.6173 127.488 31.2722C127.832 31.8944 128.061 32.6475 128.262 33.3679C128.577 33.2042 128.921 33.106 129.236 33.0077C128.921 31.8944 128.319 30.7483 127.603 29.9296C126.944 29.2092 126.17 28.7508 125.368 28.9145C124.909 29.0127 124.394 29.1437 123.821 29.2747C121.242 29.9296 118.033 30.7483 117.144 28.0959C116.801 27.0807 116.973 26.5568 117.517 26.3276C117.889 26.1639 118.405 26.2621 119.036 26.3931C120.067 26.5895 121.442 26.8515 122.273 25.8691C123.19 24.7885 123.219 23.6097 123.076 22.7583C123.047 22.8238 122.99 22.8565 122.961 22.922L122.932 22.9548C122.646 23.2822 122.302 23.6097 121.872 23.8389C121.07 24.2973 120.01 24.5266 118.864 24.1991C118.405 24.0681 118.004 24.2319 117.689 24.5921C117.431 24.8868 117.23 25.2797 117.087 25.7709C116.944 26.2621 116.858 26.786 116.887 27.3427C116.915 28.3578 117.288 29.3729 118.09 29.8969C119.408 30.781 121.07 30.3881 122.617 30.0279C123.849 29.7331 125.053 29.4384 126.055 29.8314ZM124.508 54.2925C124.25 53.0809 124.078 51.8365 123.992 50.5594L122.588 53.4083C122.617 54.0632 122.646 58.091 122.617 59.5318H125.482L124.508 54.3579C124.537 54.3252 124.537 54.2925 124.508 54.2925ZM154.479 59.4663H158.29L155.768 51.6073C155.252 55.2093 154.708 58.2219 154.479 59.4663ZM144.565 28.3906C143.906 26.8515 143.104 25.247 142.158 23.5769L141.872 23.0203L141.213 23.4132L140.84 23.6097C140.181 23.9699 139.465 24.4938 138.748 25.1815C137.832 26.0656 136.972 27.2117 136.571 28.5215C135.568 31.5996 133.047 33.2042 132.445 33.5644C130.955 36.3478 130.554 40.8994 130.468 43.1916C132.789 40.7357 136.857 39.4259 138.519 39.0002C138.691 38.9347 138.892 38.9347 139.092 38.9347L139.293 38.9674C139.608 39.0002 139.895 39.0984 140.152 39.2949C140.983 39.8843 142.531 41.0632 143.992 42.5367C144.049 42.5695 144.078 42.6022 144.106 42.6677C145.224 43.8138 146.255 45.1564 146.828 46.5645C147 45.8113 147.172 44.8289 147.287 43.5518C147.287 43.4864 147.287 43.4536 147.287 43.3881C147.287 43.3554 147.287 43.2899 147.316 43.2571V43.0934C147.316 43.0279 147.316 42.9624 147.316 42.8969C147.316 42.8314 147.316 42.7659 147.316 42.6677C147.487 39.2622 147.029 34.383 144.565 28.4888C144.565 28.4233 144.565 28.4233 144.565 28.3906Z" fill="#001E5A"/>
</svg>
